<svg width="17" height="16" viewBox="0 0 17 16" fill="none" xmlns="http://www.w3.org/2000/svg">
	<g clip-path="url(#clip0_570_14081)">
	<path d="M5.4537 2.74253L7.35823 3.80907L6.29169 1.90454L7.35823 0L5.4537 1.06654L3.54916 0L4.6157 1.90454L3.54916 3.80907L5.4537 2.74253ZM14.5955 10.2083L12.6909 9.14177L13.7575 11.0463L12.6909 12.9508L14.5955 11.8843L16.5 12.9508L15.4335 11.0463L16.5 9.14177L14.5955 10.2083ZM16.5 0L14.5955 1.06654L12.6909 0L13.7575 1.90454L12.6909 3.80907L14.5955 2.74253L16.5 3.80907L15.4335 1.90454L16.5 0ZM10.6874 4.03C10.3903 3.73289 9.91031 3.73289 9.6132 4.03L0.722831 12.9204C0.425723 13.2175 0.425723 13.6974 0.722831 13.9945L2.50548 15.7772C2.80258 16.0743 3.28253 16.0743 3.57963 15.7772L12.4624 6.89442C12.7595 6.59731 12.7595 6.11737 12.4624 5.82026L10.6874 4.03ZM9.90269 8.21236L8.28764 6.59731L10.1465 4.73848L11.7615 6.35353L9.90269 8.21236Z" fill="white"/>
	</g>
	<defs>
	<clipPath id="clip0_570_14081">
	<rect width="16" height="16" fill="white" transform="translate(0.5)"/>
	</clipPath>
	</defs>
	</svg>
