<svg width="16" height="16" viewBox="0 0 16 16" fill="currentColor" xmlns="http://www.w3.org/2000/svg">
<path d="M14.7023 4.96487L13.7167 6.44729C14.192 7.39529 14.4247 8.44641 14.394 9.50645C14.3632 10.5665 14.0699 11.6023 13.5404 12.5212H2.43432C1.74614 11.3273 1.46097 9.94348 1.62111 8.57481C1.78125 7.20614 2.37816 5.9255 3.32336 4.92275C4.26855 3.92 5.51171 3.24851 6.86854 3.00784C8.22537 2.76717 9.62364 2.97013 10.856 3.58663L12.3385 2.60102C10.8292 1.63322 9.03894 1.19954 7.25409 1.36936C5.46923 1.53919 3.79289 2.30269 2.49321 3.53776C1.19353 4.77282 0.345609 6.40808 0.0850691 8.18197C-0.175471 9.95585 0.166428 11.7659 1.05608 13.3225C1.19591 13.5647 1.3967 13.7661 1.63849 13.9067C1.88028 14.0473 2.15465 14.1221 2.43432 14.1238H13.5324C13.8148 14.1249 14.0925 14.0514 14.3373 13.9107C14.5822 13.77 14.7855 13.5671 14.9267 13.3225C15.665 12.0435 16.0355 10.5854 15.9973 9.10919C15.9591 7.63293 15.5138 6.19594 14.7103 4.95686L14.7023 4.96487ZM6.85753 10.4458C7.00637 10.5948 7.18312 10.713 7.37767 10.7937C7.57223 10.8743 7.78077 10.9158 7.99138 10.9158C8.20199 10.9158 8.41053 10.8743 8.60508 10.7937C8.79964 10.713 8.97639 10.5948 9.12523 10.4458L13.6606 3.64272L6.85753 8.17811C6.70853 8.32695 6.59032 8.5037 6.50967 8.69825C6.42902 8.89281 6.38751 9.10135 6.38751 9.31196C6.38751 9.52257 6.42902 9.73111 6.50967 9.92566C6.59032 10.1202 6.70853 10.297 6.85753 10.4458Z" fill="#1C1C1C"/>
</svg>
