<svg width="90" height="17" viewBox="0 0 90 17" fill="none" xmlns="http://www.w3.org/2000/svg">
<path d="M2.5112 14.3762L3.56927 9.78088C3.57687 9.7476 3.57596 9.71289 3.56662 9.68008C3.55728 9.64726 3.53985 9.61743 3.51597 9.59346L0.946516 7.04331C0.928123 7.02486 0.913508 7.00287 0.903537 6.97862C0.893565 6.95436 0.888428 6.92832 0.888428 6.90202C0.888428 6.87572 0.893565 6.8497 0.903537 6.82544C0.913508 6.80118 0.928123 6.77919 0.946516 6.76075L5.9612 1.67617C5.99099 1.64567 6.02974 1.62593 6.07156 1.61995C6.11337 1.61398 6.15595 1.6221 6.19282 1.64308C6.22969 1.66406 6.25882 1.69674 6.27578 1.73616C6.29274 1.77558 6.29661 1.81959 6.28678 1.86145L5.22728 6.46818C5.21934 6.50144 5.22008 6.53625 5.22944 6.56914C5.2388 6.60202 5.25644 6.63183 5.28061 6.6556L7.83041 9.19216C7.84878 9.21054 7.86337 9.23248 7.87334 9.25668C7.8833 9.28087 7.88843 9.30682 7.88843 9.33307C7.88843 9.35931 7.8833 9.38529 7.87334 9.40949C7.86337 9.43368 7.84878 9.45562 7.83041 9.474L2.83254 14.5621C2.80248 14.5919 2.76382 14.6109 2.72229 14.6164C2.68077 14.6219 2.6386 14.6136 2.60209 14.5927C2.56558 14.5718 2.53665 14.5394 2.51964 14.5004C2.50263 14.4614 2.49844 14.4178 2.50769 14.3762H2.5112Z" fill="url(#paint0_linear_570_14111)"/>
<path fill-rule="evenodd" clip-rule="evenodd" d="M24.939 1.84561H23.1028V3.74034H24.939V1.84561ZM16.7931 1.84561H14.8884V12.9771H21.6489V11.1306H16.7905L16.7931 1.84561ZM23.1062 5.20445H24.9424V12.9728H23.1062V5.20445ZM32.0885 5.82283C31.8501 5.61924 31.5859 5.4503 31.3031 5.32072C30.9186 5.14896 30.5034 5.06299 30.0845 5.06841C29.5772 5.06526 29.0748 5.17175 28.6097 5.38103C28.1634 5.58022 27.7583 5.86585 27.4162 6.22246C27.0758 6.58144 26.8062 7.00525 26.6225 7.47037C26.431 7.95001 26.3334 8.46399 26.3354 8.98272C26.3329 9.50764 26.4276 10.0282 26.6141 10.5166C26.7913 10.9836 27.0527 11.4118 27.3845 11.7783C27.7202 12.1429 28.1247 12.4327 28.573 12.6301C29.0505 12.841 29.5652 12.9474 30.0845 12.9427C30.501 12.948 30.9144 12.8678 31.3006 12.7067C31.5837 12.5857 31.8492 12.4245 32.0893 12.2279V12.6783C32.0893 13.2812 31.9224 13.7376 31.6035 14.0417C31.2847 14.3457 30.8565 14.505 30.3516 14.505C29.8834 14.505 29.4961 14.4189 29.2006 14.2535C28.9028 14.0819 28.6668 13.8154 28.5279 13.4939L28.4987 13.4293H26.5791L27.1525 14.9166L27.1758 14.9537C27.5818 15.3848 28.0776 15.715 28.6256 15.9191C29.169 16.1241 29.743 16.229 30.3215 16.2292C31.4516 16.2292 32.3438 15.9123 32.9732 15.2887C33.6025 14.6652 33.9246 13.8315 33.9246 12.8144V5.20878H32.0885V5.82628V5.82283ZM31.6294 7.45919C31.8239 7.65807 31.9768 7.8961 32.0784 8.15848C32.1801 8.42086 32.2284 8.70199 32.2203 8.98444C32.2289 9.55469 32.021 10.1058 31.6411 10.52C31.4602 10.7275 31.2379 10.8919 30.9895 11.0021C30.7411 11.1123 30.4725 11.1656 30.2022 11.1582C29.9329 11.1662 29.6651 11.1133 29.4177 11.0032C29.1703 10.8931 28.9492 10.7285 28.77 10.5209C28.3935 10.1045 28.1883 9.55377 28.1974 8.98444C28.1974 8.37124 28.3894 7.85794 28.7683 7.45746C28.9539 7.26013 29.1772 7.10466 29.424 7.0009C29.6708 6.89713 29.9358 6.84731 30.2022 6.8546C30.4675 6.85122 30.7307 6.90328 30.976 7.00763C31.2212 7.11197 31.4435 7.26643 31.6294 7.46175V7.45919ZM38.1278 5.37842C38.5171 5.16884 38.9508 5.0626 39.3898 5.06925C40.277 5.06925 41.004 5.35605 41.5515 5.92103C42.099 6.486 42.3761 7.28694 42.3761 8.30234V12.9746H40.5399V8.51593C40.5511 8.08424 40.4092 7.66317 40.141 7.33173C39.8764 7.01221 39.505 6.85632 39.0059 6.85632C38.5067 6.85632 38.1237 7.01566 37.8374 7.34207C37.5511 7.66848 37.4109 8.10769 37.4109 8.65285V12.9754H35.5747V1.84561H37.4109V5.91068C37.6243 5.69996 37.8657 5.52163 38.1278 5.38103V5.37842ZM46.4858 2.62763L44.7974 3.26582L44.8182 5.20533H43.1757V6.87011H44.653V10.3926C44.653 11.2409 44.9075 11.8963 45.41 12.3407C45.9124 12.7851 46.5284 13.0038 47.257 13.0038C47.444 13.0038 47.6164 13.0013 47.7745 12.9961C47.9339 12.9918 48.0632 12.9832 48.1634 12.9728L48.2619 12.9634V11.327H47.5066C47.3716 11.3335 47.2368 11.3121 47.11 11.2642C46.9832 11.2163 46.8669 11.1428 46.7679 11.048C46.5809 10.8637 46.4866 10.5829 46.4866 10.2126V6.87268H48.4972V5.2079H46.4866V2.63023L46.4858 2.62763ZM58.6989 1.84305H60.5351V3.73777H58.6989V1.84305ZM60.5351 5.20188H58.6989V12.9703H60.5351V5.20188ZM76.3154 5.82111V5.20272H78.1516V12.8221C78.1516 13.8384 77.8311 14.6712 77.2001 15.2965C76.5692 15.9217 75.6786 16.2361 74.5485 16.2361C73.9701 16.2359 73.3961 16.1312 72.8526 15.9269C72.3045 15.722 71.8085 15.3917 71.402 14.9606L71.3786 14.9235L70.806 13.4362H72.7257L72.7557 13.5008C72.8943 13.8225 73.1304 14.0891 73.4284 14.2604C73.7239 14.4275 74.1112 14.5119 74.5794 14.5119C75.0869 14.5119 75.5092 14.356 75.8313 14.0494C76.1535 13.7428 76.3171 13.2863 76.3171 12.686V12.2348C76.0773 12.4317 75.8122 12.5931 75.5292 12.7145C75.1426 12.8749 74.729 12.9548 74.3123 12.9496C73.793 12.9546 73.2784 12.8484 72.8008 12.6378C72.3531 12.4399 71.949 12.1501 71.6131 11.7861C71.2812 11.4194 71.0197 10.9909 70.8428 10.5235C70.6559 10.0355 70.561 9.51516 70.5632 8.99045C70.5615 8.47176 70.6591 7.95786 70.8503 7.47815C71.0338 7.01273 71.3037 6.58879 71.6449 6.2302C71.9867 5.87353 72.3916 5.58765 72.8375 5.38792C73.3028 5.17923 73.805 5.07273 74.3123 5.07526C74.7312 5.07018 75.1464 5.15618 75.5309 5.32762C75.812 5.45683 76.0748 5.62486 76.3121 5.82712L76.3154 5.82111ZM75.8672 10.5166C76.2478 10.1027 76.456 9.55143 76.4473 8.98099C76.4552 8.69844 76.4068 8.41723 76.3051 8.15474C76.2035 7.89225 76.0508 7.65406 75.8564 7.4549C75.67 7.26025 75.4475 7.10648 75.202 7.00287C74.9566 6.89927 74.6935 6.84798 74.4283 6.85203C74.162 6.84496 73.897 6.89487 73.6502 6.99863C73.4035 7.10238 73.1802 7.25773 72.9944 7.4549C72.6164 7.85537 72.4244 8.36867 72.4244 8.98187C72.4153 9.55119 72.6206 10.1019 72.9969 10.5183C73.1762 10.7257 73.3971 10.8902 73.6444 11.0003C73.8916 11.1104 74.1592 11.1634 74.4283 11.1556C74.6977 11.1632 74.9655 11.1106 75.2133 11.0013C75.4611 10.892 75.683 10.7287 75.8639 10.5226L75.8672 10.5166ZM64.3218 7.09404H62.4856V13.0461H64.3218V7.09404ZM64.3218 7.09404V5.19932H66.158C66.9876 5.19955 67.7831 5.53969 68.3697 6.145C68.9563 6.7503 69.286 7.57121 69.2862 8.42724V13.0435H67.45V8.86043C67.45 8.39332 67.2702 7.94533 66.9501 7.61504C66.63 7.28474 66.1959 7.09917 65.7432 7.09917L64.3218 7.09404ZM51.905 7.09404H50.0689V13.0461H51.905V7.09404ZM51.905 7.09404V5.19932H53.7412C54.5709 5.19932 55.3666 5.53939 55.9532 6.14475C56.5398 6.7501 56.8694 7.57114 56.8694 8.42724V13.0435H55.0332V8.86043C55.0332 8.39332 54.8534 7.94533 54.5333 7.61504C54.2132 7.28474 53.7791 7.09917 53.3264 7.09917L51.905 7.09404Z" fill="#292F36"/>
<path d="M81.4266 5.20877H79.8333C79.7669 5.20877 79.7131 5.2643 79.7131 5.33279V6.97689C79.7131 7.04539 79.7669 7.10091 79.8333 7.10091H81.4266C81.493 7.10091 81.5468 7.04539 81.5468 6.97689V5.33279C81.5468 5.2643 81.493 5.20877 81.4266 5.20877Z" fill="#292F36"/>
<path d="M85.4078 1.98083C84.5791 1.98083 84.0724 2.32964 83.6943 2.66983C83.6866 2.67759 83.6801 2.68661 83.6752 2.69653L83.2445 3.58102C83.2372 3.59412 83.2333 3.60897 83.2333 3.62409C83.2333 3.6392 83.2372 3.65406 83.2445 3.66715C83.252 3.67984 83.2625 3.69031 83.2751 3.69755C83.2877 3.7048 83.3019 3.70857 83.3163 3.70849H84.3612C84.378 3.70844 84.3944 3.70314 84.4083 3.69331C84.4221 3.68347 84.4328 3.66954 84.4388 3.65336C84.5949 3.24599 84.9062 3.05049 85.3895 3.05049C85.9111 3.05049 86.2608 3.32265 86.2608 3.72657V3.83851C85.9195 3.84799 85.5748 3.86608 85.0706 3.89192C83.8504 3.94273 83.151 4.49478 83.151 5.41028C83.151 6.34128 83.8838 6.96652 84.9747 6.96652C85.6524 6.96652 86.0597 6.71592 86.2884 6.492V6.78742C86.2884 6.81026 86.2972 6.83216 86.3128 6.84831C86.3285 6.86446 86.3497 6.87354 86.3718 6.87354H87.3275C87.3496 6.87354 87.3709 6.86446 87.3865 6.84831C87.4022 6.83216 87.411 6.81026 87.411 6.78742V3.87556C87.4118 2.68791 86.6665 1.98083 85.4078 1.98083ZM85.1825 5.95288C84.7652 5.95288 84.3103 5.80643 84.3103 5.39648C84.3103 5.27677 84.3103 4.91161 85.2885 4.85993C85.7275 4.82548 85.9128 4.81516 86.2617 4.80568C86.2567 5.24319 86.1907 5.48092 86.033 5.64455C85.8485 5.84608 85.5464 5.95288 85.1825 5.95288Z" fill="#292F36"/>
<path d="M89.5818 0H88.5903C88.5442 0 88.5068 0.0385588 88.5068 0.0861235V1.10927C88.5068 1.15684 88.5442 1.19539 88.5903 1.19539H89.5818C89.6279 1.19539 89.6653 1.15684 89.6653 1.10927V0.0861235C89.6653 0.0385588 89.6279 0 89.5818 0Z" fill="#292F36"/>
<path d="M89.5818 2.06528H88.5903C88.5442 2.06528 88.5068 2.10384 88.5068 2.1514V6.78401C88.5068 6.83157 88.5442 6.87013 88.5903 6.87013H89.5818C89.6279 6.87013 89.6653 6.83157 89.6653 6.78401V2.1514C89.6653 2.10384 89.6279 2.06528 89.5818 2.06528Z" fill="#292F36"/>
<defs>
<linearGradient id="paint0_linear_570_14111" x1="6.16709" y1="3.2932" x2="-6.33022" y2="16.5517" gradientUnits="userSpaceOnUse">
<stop stop-color="#792EE5"/>
<stop offset="1" stop-color="#3EABB3"/>
</linearGradient>
</defs>
</svg>
