<svg width="159" height="53" viewBox="0 0 159 53" fill="none"
	xmlns="http://www.w3.org/2000/svg">
	<g clip-path="url(#clip0_677_91544)">
		<path d="M48.8437 44.5431V16.4382C48.8444 16.1637 48.7704 15.8941 48.6295 15.6581L39.7871 0.765273C39.6502 0.526915 39.4504 0.33029 39.2095 0.196619C39.02 0.0906493 38.8103 0.0256404 38.5939 0.00585938H38.565C38.5225 0.00585938 38.4809 0.00585938 38.4411 0.00585938H1.69748C1.28887 0.00633563 0.897128 0.168123 0.608195 0.455717C0.319262 0.743312 0.156728 1.13323 0.15625 1.53995V44.5593C0.15625 44.5593 0.15625 44.5646 0.15625 44.5673V50.6578C0.157922 51.0638 0.320982 51.4525 0.609786 51.7392C0.89859 52.0258 1.28965 52.187 1.69748 52.1874H10.8888C11.2959 52.1858 11.6858 52.0241 11.9736 51.7376C12.2614 51.4511 12.4239 51.063 12.4255 50.6578V11.7225L18.5344 17.131V44.5557C18.5344 44.5611 18.5344 44.5665 18.5344 44.5728V50.6542C18.5358 51.0602 18.6988 51.4491 18.9877 51.7358C19.2765 52.0225 19.6677 52.1836 20.0756 52.1838H29.2633C29.6711 52.1831 30.062 52.0219 30.3508 51.7353C30.6395 51.4487 30.8027 51.0601 30.8046 50.6542V44.5557C30.8046 44.5395 30.8046 44.5251 30.8046 44.5098V16.4733C30.8046 16.4625 30.8046 16.4526 30.8046 16.4418C30.8046 16.431 30.8046 16.4211 30.8046 16.4112V8.31334C30.8041 7.90663 30.6416 7.5167 30.3526 7.22911C30.0637 6.94151 29.672 6.77973 29.2633 6.77925H10.9232C10.8882 6.77746 10.8532 6.77746 10.8183 6.77925C10.6245 6.78739 10.4341 6.83196 10.257 6.91061C10.0734 6.99263 9.90763 7.10937 9.76882 7.25433L9.75346 7.27142C9.71346 7.31535 9.67574 7.3613 9.64046 7.40908C9.62679 7.42634 9.61411 7.44438 9.6025 7.46308C9.55261 7.53809 9.50936 7.61725 9.47323 7.6997C9.46148 7.7258 9.45063 7.7528 9.4416 7.77979C9.3925 7.91359 9.36208 8.05344 9.3512 8.19547C9.3512 8.20357 9.3512 8.21167 9.3512 8.21887C9.3512 8.25066 9.3512 8.28215 9.3512 8.31334V43.0243H3.23962V3.07495H36.9125V44.5602V50.6596C36.9142 51.0656 37.0773 51.4543 37.3661 51.741C37.6549 52.0276 38.0459 52.1887 38.4538 52.1892H47.3025C47.7095 52.1873 48.0993 52.0256 48.387 51.7391C48.6748 51.4527 48.8373 51.0647 48.8392 50.6596V44.5512L48.8437 44.5431ZM39.9941 43.0189V7.14366L45.7613 16.8611V43.0216L39.9941 43.0189ZM39.9941 46.0862H45.7604V49.1183H39.995L39.9941 46.0862ZM3.23871 46.0862H9.34578V49.1183H3.23962L3.23871 46.0862ZM27.7221 43.0189H21.6178V17.9732H27.7221V43.0189ZM21.6169 46.0871H27.7212V49.1183H21.6178L21.6169 46.0871ZM27.7221 14.9059H20.6641L14.9403 9.84294H27.723L27.7221 14.9059Z" fill="url(#paint0_linear_677_91544)"/>
	</g>
	<path d="M59.5238 51.1855V1.94055H68.7028L72.6558 27.4675L72.9908 30.0805H73.1248L73.4598 27.4675L77.4128 1.94055H86.5918V51.1855H79.8918V18.1545H79.4898L79.2218 20.2315L74.9338 51.1855H71.1818L66.8938 20.2315L66.6258 18.1545H66.2238V51.1855H59.5238ZM101.625 51.7215C99.5925 51.7215 97.8505 51.2525 96.3989 50.3145C94.9695 49.3765 93.8752 48.1035 93.1159 46.4955C92.3565 44.8875 91.9769 43.0785 91.9769 41.0685V1.94055H99.2129V41.0685C99.2129 42.0289 99.4027 42.8775 99.7824 43.6145C100.162 44.3292 100.776 44.6865 101.625 44.6865C102.518 44.6865 103.144 44.3292 103.501 43.6145C103.858 42.8775 104.037 42.0289 104.037 41.0685V1.94055H111.273V41.0685C111.273 43.0785 110.882 44.8875 110.1 46.4955C109.341 48.1035 108.236 49.3765 106.784 50.3145C105.355 51.2525 103.635 51.7215 101.625 51.7215ZM125.354 51.7215C123.366 51.7215 121.714 51.3977 120.396 50.75C119.078 50.08 118.04 49.1197 117.28 47.869C116.521 46.6184 115.974 45.1109 115.639 43.3465C115.326 41.5822 115.17 39.5945 115.17 37.3835L122.272 36.7135C122.272 37.7855 122.305 38.824 122.372 39.829C122.462 40.8117 122.607 41.705 122.808 42.509C123.031 43.2907 123.344 43.916 123.746 44.385C124.17 44.854 124.706 45.0885 125.354 45.0885C126.426 45.0885 127.185 44.5972 127.632 43.6145C128.079 42.6095 128.302 41.4035 128.302 39.9965C128.302 38.5895 127.933 37.1267 127.196 35.608C126.459 34.0894 125.577 32.6489 124.55 31.2865C122.808 28.9639 121.278 26.8087 119.96 24.821C118.665 22.8334 117.649 20.8792 116.912 18.9585C116.197 17.0379 115.84 15.0279 115.84 12.9285C115.84 11.2759 116.052 9.75721 116.476 8.37254C116.901 6.96554 117.515 5.74838 118.319 4.72104C119.145 3.67138 120.139 2.85621 121.3 2.27555C122.462 1.69488 123.791 1.40454 125.287 1.40454C127.141 1.40454 128.704 1.71721 129.977 2.34254C131.272 2.96788 132.311 3.86121 133.092 5.02255C133.896 6.18388 134.477 7.56854 134.834 9.17654C135.214 10.7622 135.404 12.5265 135.404 14.4695L128.302 15.1395C128.302 14.3132 128.257 13.4869 128.168 12.6605C128.101 11.8119 127.967 11.0414 127.766 10.349C127.565 9.65671 127.275 9.09838 126.895 8.67405C126.515 8.24971 126.024 8.03754 125.421 8.03754C124.483 8.03754 123.835 8.43954 123.478 9.24354C123.121 10.0252 122.942 11.1419 122.942 12.5935C122.942 14.4695 123.444 16.2785 124.449 18.0205C125.454 19.7625 126.806 21.7949 128.503 24.1175C130.535 26.8645 132.188 29.3882 133.461 31.6885C134.756 33.9889 135.404 36.5349 135.404 39.3265C135.404 41.0909 135.214 42.7324 134.834 44.251C134.455 45.7474 133.852 47.0539 133.025 48.1705C132.221 49.2872 131.183 50.1582 129.91 50.7835C128.659 51.4089 127.141 51.7215 125.354 51.7215ZM139.283 51.1855V1.94055H155.832V9.37755H146.519V22.6435H153.219V29.8795H146.519V43.7485H155.832V51.1855H139.283Z" fill="black"/>
	<defs>
		<linearGradient id="paint0_linear_677_91544" x1="36.8713" y1="6.73012" x2="-5.31835" y2="84.2858" gradientUnits="userSpaceOnUse">
			<stop stop-color="#792EE5"/>
			<stop offset="1" stop-color="#3EABB3"/>
		</linearGradient>
		<clipPath id="clip0_677_91544">
			<rect width="48.6875" height="52.186" fill="white" transform="translate(0.15625)"/>
		</clipPath>
	</defs>
</svg>
