<svg width="16" height="16" viewBox="0 0 16 16" fill="none" xmlns="http://www.w3.org/2000/svg">
<path d="M5.89409 8.4347C4.96609 8.4347 4.21343 9.18736 4.21343 10.1154V14.3193C4.21343 15.2473 4.96609 16 5.89409 16C6.82209 16 7.57475 15.2473 7.57475 14.3193V10.1154C7.57408 9.18736 6.82142 8.4347 5.89409 8.4347Z" fill="#E01E5A"/>
<path d="M0.0113188 10.1153C0.0113188 11.044 0.76465 11.7973 1.69331 11.7973C2.62198 11.7973 3.37531 11.044 3.37531 10.1153V8.43333H1.69465H1.69331C0.76465 8.43333 0.0113188 9.18666 0.0113188 10.1153Z" fill="#E01E5A"/>
<path d="M5.89594 0L5.89394 0C4.96528 0 4.21195 0.753331 4.21195 1.68199C4.21195 2.61066 4.96528 3.36399 5.89394 3.36399H7.5746C7.5746 2.40999 7.5746 2.64199 7.5746 1.67866C7.57394 0.751331 6.8226 0 5.89594 0Z" fill="#36C5F0"/>
<path d="M1.682 7.58059H5.89399C6.82265 7.58059 7.57598 6.82726 7.57598 5.89859C7.57598 4.96993 6.82265 4.2166 5.89399 4.2166H1.682C0.753331 4.2166 0 4.96993 0 5.89859C0 6.82726 0.753331 7.58059 1.682 7.58059Z" fill="#36C5F0"/>
<path d="M14.3034 4.2161C13.376 4.2161 12.6247 4.96743 12.6247 5.89476V7.58009H14.3054C15.234 7.58009 15.9873 6.82675 15.9873 5.89809C15.9873 4.96943 15.234 4.2161 14.3054 4.2161H14.3034Z" fill="#2EB67D"/>
<path d="M8.42605 1.68203V5.89869C8.42605 6.82668 9.17872 7.57935 10.1067 7.57935C11.0347 7.57935 11.7874 6.82668 11.7874 5.89869V1.68203C11.7874 0.754037 11.0347 0.00137309 10.1067 0.00137309C9.17872 0.00137309 8.42605 0.754037 8.42605 1.68203Z" fill="#2EB67D"/>
<path d="M11.7867 14.318C11.7867 13.39 11.034 12.6373 10.1061 12.6373H8.42539V14.3193C8.42606 15.2466 9.17805 15.9986 10.1061 15.9986C11.034 15.9986 11.7867 15.246 11.7867 14.318Z" fill="#ECB22E"/>
<path d="M14.3179 8.43333H10.1059C9.17722 8.43333 8.42389 9.18666 8.42389 10.1153C8.42389 11.044 9.17722 11.7973 10.1059 11.7973H14.3179C15.2465 11.7973 15.9999 11.044 15.9999 10.1153C15.9999 9.18666 15.2465 8.43333 14.3179 8.43333Z" fill="#ECB22E"/>
</svg>
