<svg width="392" height="40" viewBox="0 0 392 40" fill="none"
	xmlns="http://www.w3.org/2000/svg">
	<g clip-path="url(#clip0_570_14036)">
		<path d="M41.5008 19.9241L39.5419 11.2417C39.5411 11.173 39.5215 11.1059 39.4854 11.0475C39.4493 10.9891 39.3979 10.9416 39.3369 10.9102L33.8669 4.06443C33.8669 4.01442 33.7661 3.9636 33.716 3.91359L25.681 0.0491049C25.6215 0.0291568 25.5596 0.0172215 25.497 0.013614C25.458 0.0048666 25.4182 0.000269949 25.3783 -9.8603e-05H16.4902C16.4194 -0.00756566 16.3482 0.0101416 16.2892 0.0499114L8.43899 3.82487C8.37288 3.84135 8.311 3.87158 8.25738 3.91359C8.21799 3.94201 8.18292 3.97597 8.15326 4.01442L2.57919 10.99C2.52537 11.0457 2.49012 11.1167 2.4783 11.1933L0.546828 19.8015C0.524606 19.8543 0.511505 19.9105 0.508085 19.9676C0.490976 20.0493 0.501185 20.1343 0.537142 20.2096L2.47426 28.8105C2.48706 28.8858 2.52221 28.9555 2.57516 29.0106L8.15245 35.9338C8.21617 36.0291 8.31517 36.0953 8.42769 36.1177L16.3893 39.9467C16.4393 39.9967 16.4893 39.9967 16.5902 39.9967H25.4816C25.5677 40.004 25.654 39.9864 25.7302 39.9459L33.7628 36.0846L33.9138 35.9346L39.483 28.9582C39.5335 28.9092 39.5698 28.8476 39.5883 28.7797C39.6068 28.7119 39.6066 28.6404 39.5879 28.5726L41.4936 20.1241L41.5008 19.9241ZM37.332 9.93658L26.3162 4.62341L25.7811 4.3653C25.6346 4.31527 25.4756 4.31527 25.3291 4.3653L25.1959 4.42902L11.5456 10.9779L12.3576 7.43688L12.3722 7.3772H12.3778L25.48 1.05334L33.214 4.76699L37.332 9.93658ZM30.8483 12.1951L33.3116 22.9432L26.539 31.4175H15.658L8.82238 22.8448L11.2583 12.229L21.0553 7.51997L30.8483 12.1951ZM16.6903 1.00252H23.2467L21.1659 2.00434L11.6683 6.52138C11.5575 6.61632 11.4714 6.73673 11.4173 6.87225L8.00475 21.8196L5.70119 18.9303L8.95636 4.71698L16.6903 1.00252ZM3.43314 11.5426L7.49464 6.49315L4.63738 19.0174C4.61448 19.0873 4.6118 19.1623 4.62965 19.2336C4.6475 19.305 4.68515 19.3699 4.73828 19.4208L7.85381 23.2869C7.88605 23.336 7.92809 23.3781 7.97731 23.4103L14.3303 31.3667H10.7143L1.52427 19.8741L3.43314 11.5426ZM1.97546 22.0285L10.0613 32.1701C10.1055 32.2355 10.1659 32.2884 10.2366 32.3236C10.3074 32.3588 10.386 32.3751 10.4649 32.3709H25.731L23.5211 35.1312H8.80623L3.43233 28.4548L1.97546 22.0285ZM10.7643 36.1346H23.7713C23.8952 36.1318 24.0164 36.0974 24.1232 36.0346L27.1363 32.2701C27.1767 32.2072 27.2062 32.138 27.2234 32.0652L33.5836 24.1282L34.3682 27.5522L34.005 28.012L25.2282 38.9957H16.6903L10.7643 36.1346ZM33.1639 35.2304L27.2662 38.0777L35.3771 28.0047C35.4303 27.9539 35.468 27.889 35.4859 27.8177C35.5037 27.7463 35.501 27.6713 35.478 27.6014L34.419 22.8892C34.3992 22.8093 34.3617 22.7349 34.3093 22.6714L32.0582 12.7968L35.2229 14.3528L38.487 28.5565L33.1639 35.2304ZM39.0786 26.3254L36.2262 13.9035C36.2255 13.8263 36.201 13.7513 36.1561 13.6885C36.1112 13.6257 36.048 13.5783 35.9752 13.5526L31.5561 11.4417C31.4913 11.4093 31.4203 11.3912 31.3479 11.3885L22.2152 6.9755L25.325 5.46633L25.5301 5.36953L38.6508 11.7023L40.4959 20.0741L39.0786 26.3254Z" fill="url(#paint0_linear_570_14036)"/>
		<path d="M18.3636 28.2597L19.8487 22.1859C19.8568 22.1406 19.8568 22.0942 19.8487 22.0488C19.8323 22.0067 19.8076 21.9683 19.7761 21.9359L16.1762 18.5642C16.1501 18.54 16.1307 18.5094 16.1197 18.4755C16.104 18.4428 16.0958 18.4069 16.0958 18.3706C16.0958 18.3343 16.104 18.2985 16.1197 18.2658C16.1338 18.2334 16.1528 18.2035 16.1762 18.1771L23.2064 11.4741C23.2485 11.4342 23.3022 11.4088 23.3597 11.4015C23.4183 11.3917 23.4784 11.4031 23.5292 11.4338C23.5803 11.4591 23.6205 11.5021 23.6422 11.5548C23.6674 11.6047 23.6732 11.6622 23.6584 11.7161L22.1813 17.8141C22.1732 17.8594 22.1732 17.9059 22.1813 17.9512C22.1977 17.9933 22.2224 18.0317 22.254 18.0641L25.8296 21.4196C25.8557 21.4439 25.8751 21.4745 25.8861 21.5084C25.9031 21.5376 25.9088 21.572 25.9022 21.6052C25.9008 21.6406 25.8954 21.6758 25.8861 21.71C25.8721 21.7424 25.853 21.7724 25.8296 21.7987L18.8156 28.5259C18.7735 28.5658 18.7198 28.5912 18.6622 28.5985C18.6037 28.6083 18.5435 28.5969 18.4927 28.5662C18.4434 28.5385 18.404 28.4963 18.3797 28.4453C18.351 28.3877 18.3453 28.3214 18.3636 28.2597Z" fill="url(#paint1_linear_570_14036)"/>
	</g>
	<path fill-rule="evenodd" clip-rule="evenodd" d="M207.657 4.01572C198.565 4.01572 191.482 11.0528 191.482 20.0212C191.482 28.9852 198.434 35.9843 207.234 35.9843C211.628 35.9843 215.251 34.127 217.116 31.6619L217.617 35.4765H221.8V19.0791H207.603V23.8828H216.953C216.859 27.6712 212.898 30.8845 207.572 30.8845C201.52 30.8845 196.878 26.2056 196.878 20.0212C196.878 13.7955 201.477 9.15786 207.657 9.15786C212.234 9.15786 215.311 11.5674 216.248 14.2553L216.3 14.4047H221.986L221.921 14.1309C220.669 8.81923 215.37 4.01572 207.657 4.01572ZM60.8208 4.56579H51.5009V35.4765H60.567C65.2197 35.4765 69.4219 34.1426 72.4647 31.5246C75.5117 28.9028 77.3764 25.0097 77.3764 19.9365C77.3764 15.1358 75.5205 11.2871 72.5141 8.64105C69.5109 5.99773 65.3728 4.56579 60.8208 4.56579ZM56.8122 30.5883V9.45405H60.9055C64.0136 9.45405 66.7819 10.403 68.7701 12.1795C70.7552 13.9532 71.9803 16.5671 71.9803 19.9365C71.9803 23.2897 70.8363 25.9467 68.9034 27.7662C66.9687 29.5874 64.2237 30.5883 60.9901 30.5883H56.8122ZM105.989 13.5785C99.5615 13.5785 94.7651 18.5442 94.7651 24.6333C94.7651 30.7179 99.3455 35.8574 106.201 35.8574C109.819 35.8574 112.455 34.561 114.652 32.3648L114.676 32.34L116.72 28.3457H111.317L111.253 28.4594C110.777 29.3084 110.218 30.015 109.435 30.5119C108.653 31.008 107.628 31.3076 106.201 31.3076C103.042 31.3076 100.257 29.1295 99.8105 26.1677H116.737L116.748 25.9562C116.919 22.5492 116.041 19.4555 114.206 17.2093C112.368 14.9586 109.584 13.5785 105.989 13.5785ZM129.722 13.5785C126.055 13.5785 123.72 15.0072 121.79 16.6794L121.757 16.7081L119.543 21.0901H124.965L125.021 20.9492C125.327 20.1734 125.791 19.462 126.514 18.9433C127.236 18.4254 128.236 18.0859 129.637 18.0859C130.976 18.0859 132.044 18.436 132.773 19.0112C133.498 19.5832 133.9 20.3867 133.9 21.3329V22.0043C132.236 22.0483 130.577 22.1313 128.146 22.2528C125.498 22.3598 123.292 22.9797 121.742 24.1095C120.182 25.2462 119.302 26.8892 119.302 28.9915C119.302 31.1766 120.223 32.9124 121.741 34.0966C123.254 35.2765 125.348 35.8997 127.691 35.8997C130.902 35.8997 132.881 34.7447 134.027 33.4997V35.4765H138.957V22.0099C138.957 19.4004 138.115 17.2838 136.521 15.8215C134.93 14.3614 132.617 13.5785 129.722 13.5785ZM236.815 13.5785C230.387 13.5785 225.59 18.5442 225.59 24.6333C225.59 30.7179 230.171 35.8574 237.026 35.8574C240.644 35.8574 243.281 34.561 245.477 32.3648L245.502 32.34L247.545 28.3457H242.142L242.079 28.4594C241.602 29.3084 241.043 30.015 240.26 30.5119C239.478 31.008 238.454 31.3076 237.026 31.3076C233.867 31.3076 231.082 29.1295 230.636 26.1677H247.562L247.573 25.9562C247.744 22.5492 246.867 19.4555 245.032 17.2093C243.193 14.9586 240.409 13.5785 236.815 13.5785ZM285.459 13.5785C279.031 13.5785 274.235 18.5442 274.235 24.6333C274.235 30.7179 278.815 35.8574 285.67 35.8574C289.288 35.8574 291.925 34.561 294.121 32.3648L294.146 32.34L296.19 28.3457H290.787L290.723 28.4594C290.247 29.3084 289.687 30.015 288.904 30.5119C288.123 31.008 287.098 31.3076 285.67 31.3076C282.512 31.3076 279.726 29.1295 279.28 26.1677H296.206L296.217 25.9562C296.389 22.5492 295.511 19.4555 293.676 17.2093C291.838 14.9586 289.054 13.5785 285.459 13.5785ZM324.299 13.5785C320.632 13.5785 318.297 15.0072 316.368 16.6794L316.334 16.7081L314.12 21.0901H319.542L319.598 20.9492C319.904 20.1734 320.368 19.462 321.091 18.9433C321.814 18.4254 322.813 18.0859 324.214 18.0859C325.553 18.0859 326.621 18.436 327.35 19.0112C328.075 19.5832 328.477 20.3867 328.477 21.3329V22.0043C326.814 22.0483 325.155 22.1313 322.724 22.2528L322.723 22.2528C320.075 22.3598 317.869 22.9797 316.319 24.1095C314.759 25.2462 313.879 26.8892 313.879 28.9915C313.879 31.1766 314.8 32.9124 316.318 34.0966C317.831 35.2765 319.925 35.8997 322.268 35.8997C325.479 35.8997 327.458 34.7447 328.604 33.4997V35.4765H333.534V22.0099C333.534 19.4004 332.692 17.2838 331.098 15.8215C329.507 14.3614 327.194 13.5785 324.299 13.5785ZM363.62 13.5785C357.065 13.5785 352.226 18.6711 352.226 24.7179C352.226 30.719 356.85 35.8574 363.62 35.8574C370.39 35.8574 375.013 30.6761 375.013 24.7179C375.013 18.6711 370.174 13.5785 363.62 13.5785ZM86.4952 13.9593H81.3954V35.4765H86.4952V24.2101C86.4952 22.554 86.9301 21.1274 87.7516 20.1195C88.5684 19.1173 89.783 18.509 91.3924 18.509H94.1539V13.9593H91.5194C89.0814 13.9593 87.4095 15.0567 86.4952 16.3368V13.9593ZM305.188 13.9593H300.088V35.4765H305.188V24.2101C305.188 22.554 305.623 21.1274 306.444 20.1195C307.261 19.1173 308.476 18.509 310.085 18.509H312.847V13.9593H310.212C307.774 13.9593 306.102 15.0567 305.188 16.3368V13.9593ZM383.841 13.9593H378.741V35.4765H383.841V24.2101C383.841 22.554 384.275 21.1274 385.097 20.1195C385.914 19.1173 387.128 18.509 388.738 18.509H391.499V13.9593H388.865C386.427 13.9593 384.755 15.0567 383.841 16.3368V13.9593ZM111.542 22.168H100.147C100.47 21.081 101.025 20.0905 101.882 19.3544C102.809 18.5583 104.109 18.0436 105.905 18.0436C108.858 18.0436 110.887 19.8186 111.542 22.168ZM242.367 22.168H230.972C231.296 21.081 231.85 20.0905 232.707 19.3544C233.634 18.5583 234.935 18.0436 236.73 18.0436C239.683 18.0436 241.713 19.8186 242.367 22.168ZM291.012 22.168H279.616C279.94 21.081 280.494 20.0905 281.351 19.3544C282.279 18.5583 283.579 18.0436 285.374 18.0436C288.327 18.0436 290.357 19.8186 291.012 22.168ZM357.411 24.7179C357.411 21.1145 360.149 18.3821 363.62 18.3821C367.09 18.3821 369.828 21.1145 369.828 24.7179C369.828 28.1559 367.087 31.0537 363.62 31.0537C360.152 31.0537 357.411 28.1559 357.411 24.7179ZM129.146 26.3363C131.294 26.1742 132.157 26.1289 133.9 26.0882C133.89 28.1761 133.588 29.3801 132.78 30.1881L132.777 30.1914C131.86 31.1484 130.362 31.6461 128.664 31.6461C127.356 31.6461 126.281 31.386 125.541 30.9188C124.809 30.4573 124.402 29.7945 124.402 28.9492C124.402 28.1709 124.763 27.5739 125.527 27.1381C126.307 26.6931 127.503 26.4206 129.141 26.3366L129.146 26.3363ZM323.723 26.3363C325.871 26.1742 326.734 26.1289 328.477 26.0882C328.467 28.1761 328.165 29.3801 327.357 30.1881L327.354 30.1914C326.437 31.1484 324.939 31.6461 323.241 31.6461C321.933 31.6461 320.858 31.386 320.118 30.9188C319.386 30.4573 318.979 29.7945 318.979 28.9492C318.979 28.1709 319.34 27.5739 320.104 27.1381C320.884 26.6931 322.08 26.4206 323.718 26.3366L323.723 26.3363ZM167.692 18.1594C165.528 18.1594 164.047 19.2266 163.371 20.9971C163.419 21.3825 163.443 21.7727 163.443 22.1654V35.2958H158.22V23.3976C158.22 22.0689 157.709 20.7947 156.798 19.8552C155.888 18.9157 154.653 18.3878 153.365 18.3878L149.322 18.3733V12.9839H154.545C156.905 12.9839 159.168 13.9512 160.837 15.6731C161.098 15.9419 161.34 16.2258 161.564 16.5226L161.599 16.4535C163.037 14.3802 165.407 12.9838 168.58 12.9838C173.869 12.9838 176.831 16.9746 176.831 22.5176V35.2538H172.177V23.11C172.177 20.3596 170.654 18.1594 167.692 18.1594ZM144.099 18.3733H149.322V35.3032H144.099V18.3733ZM340.234 8.11815L345.037 6.30287L345.039 6.31028V13.6422H350.758V18.3776H345.039V27.8776C345.039 28.931 345.307 29.7296 345.839 30.2538C346.121 30.5235 346.452 30.7326 346.812 30.8689C347.173 31.0051 347.557 31.0659 347.94 31.0476H350.089V35.702L349.809 35.7289C349.524 35.7583 349.156 35.7828 348.702 35.7951C348.253 35.8098 347.762 35.8171 347.23 35.8171C345.158 35.8171 343.406 35.1949 341.977 33.9309C340.548 32.6668 339.824 30.8026 339.824 28.3896V18.3703H335.621V13.6349H340.294L340.234 8.11815ZM250.995 18.3733H256.218V35.3032H250.995V18.3733ZM256.218 18.3733V12.9839H261.441C263.801 12.9839 266.064 13.9512 267.733 15.6731C269.402 17.3949 270.339 19.7303 270.339 22.1654V35.2958H265.116V23.3976C265.116 22.0689 264.605 20.7947 263.694 19.8552C262.784 18.9157 261.549 18.3878 260.261 18.3878L256.218 18.3733Z" fill="url(#paint2_linear_570_14036)"/>
	<defs>
		<linearGradient id="paint0_linear_570_14036" x1="31.4185" y1="5.15257" x2="0.782299" y2="67.0239" gradientUnits="userSpaceOnUse">
			<stop stop-color="#792EE5"/>
			<stop offset="1" stop-color="#3EABB3"/>
		</linearGradient>
		<linearGradient id="paint1_linear_570_14036" x1="23.4928" y1="13.6149" x2="7.03673" y2="32.1012" gradientUnits="userSpaceOnUse">
			<stop stop-color="#792EE5"/>
			<stop offset="1" stop-color="#3EABB3"/>
		</linearGradient>
		<linearGradient id="paint2_linear_570_14036" x1="307.892" y1="8.13513" x2="304.96" y2="69.5675" gradientUnits="userSpaceOnUse">
			<stop stop-color="#792EE5"/>
			<stop offset="1" stop-color="#3EABB3"/>
		</linearGradient>
		<clipPath id="clip0_570_14036">
			<rect width="41" height="40" fill="white" transform="translate(0.500854)"/>
		</clipPath>
	</defs>
</svg>
